<mxfile host="app.diagrams.net" modified="2021-09-22T12:03:16.947Z" agent="5.0 (Windows NT 10.0; Win64; x64) AppleWebKit/537.36 (KHTML, like Gecko) Chrome/93.0.4577.82 Safari/537.36 Edg/93.0.961.52" etag="1ZBdPkAo4TzCBQxS2eEI" version="15.2.9" type="github">
  <diagram id="R2lEEEUBdFMjLlhIrx00" name="Page-1">
    <mxGraphModel dx="269" dy="2747" grid="1" gridSize="10" guides="1" tooltips="1" connect="1" arrows="1" fold="1" page="1" pageScale="1" pageWidth="850" pageHeight="1100" math="0" shadow="0" extFonts="Permanent Marker^https://fonts.googleapis.com/css?family=Permanent+Marker">
      <root>
        <mxCell id="0" />
        <mxCell id="1" parent="0" />
        <mxCell id="siPbiEY-4KJ5PGM7pnpy-33" value="User" style="swimlane;childLayout=stackLayout;horizontal=1;startSize=30;horizontalStack=0;rounded=1;fontSize=14;fontStyle=0;strokeWidth=2;resizeParent=0;resizeLast=1;shadow=0;dashed=0;align=center;" vertex="1" parent="1">
          <mxGeometry x="40" y="-2039.9999511718752" width="160" height="120" as="geometry" />
        </mxCell>
        <mxCell id="siPbiEY-4KJ5PGM7pnpy-34" value="UserID&#xa;Name" style="align=left;strokeColor=none;fillColor=none;spacingLeft=4;fontSize=12;verticalAlign=top;resizable=0;rotatable=0;part=1;" vertex="1" parent="siPbiEY-4KJ5PGM7pnpy-33">
          <mxGeometry y="30" width="160" height="90" as="geometry" />
        </mxCell>
        <mxCell id="siPbiEY-4KJ5PGM7pnpy-35" value="Post" style="swimlane;childLayout=stackLayout;horizontal=1;startSize=30;horizontalStack=0;rounded=1;fontSize=14;fontStyle=0;strokeWidth=2;resizeParent=0;resizeLast=1;shadow=0;dashed=0;align=center;" vertex="1" parent="1">
          <mxGeometry x="200" y="-1880" width="160" height="140" as="geometry" />
        </mxCell>
        <mxCell id="siPbiEY-4KJ5PGM7pnpy-36" value="UserID&#xa;PostID&#xa;PostDate&#xa;PostText&#xa;ViewID&#xa;LikeID&#xa;CommentID" style="align=left;strokeColor=none;fillColor=none;spacingLeft=4;fontSize=12;verticalAlign=top;resizable=0;rotatable=0;part=1;" vertex="1" parent="siPbiEY-4KJ5PGM7pnpy-35">
          <mxGeometry y="30" width="160" height="110" as="geometry" />
        </mxCell>
        <mxCell id="siPbiEY-4KJ5PGM7pnpy-37" value="View" style="swimlane;childLayout=stackLayout;horizontal=1;startSize=30;horizontalStack=0;rounded=1;fontSize=14;fontStyle=0;strokeWidth=2;resizeParent=0;resizeLast=1;shadow=0;dashed=0;align=center;" vertex="1" parent="1">
          <mxGeometry x="480" y="-2000" width="160" height="100" as="geometry" />
        </mxCell>
        <mxCell id="siPbiEY-4KJ5PGM7pnpy-38" value="UserID&#xa;ViewID&#xa;ViewDate" style="align=left;strokeColor=none;fillColor=none;spacingLeft=4;fontSize=12;verticalAlign=top;resizable=0;rotatable=0;part=1;" vertex="1" parent="siPbiEY-4KJ5PGM7pnpy-37">
          <mxGeometry y="30" width="160" height="70" as="geometry" />
        </mxCell>
        <mxCell id="siPbiEY-4KJ5PGM7pnpy-40" value="Like" style="swimlane;childLayout=stackLayout;horizontal=1;startSize=30;horizontalStack=0;rounded=1;fontSize=14;fontStyle=0;strokeWidth=2;resizeParent=0;resizeLast=1;shadow=0;dashed=0;align=center;" vertex="1" parent="1">
          <mxGeometry x="480" y="-1840" width="160" height="100" as="geometry" />
        </mxCell>
        <mxCell id="siPbiEY-4KJ5PGM7pnpy-41" value="UserID&#xa;LikeID&#xa;LikeDate" style="align=left;strokeColor=none;fillColor=none;spacingLeft=4;fontSize=12;verticalAlign=top;resizable=0;rotatable=0;part=1;" vertex="1" parent="siPbiEY-4KJ5PGM7pnpy-40">
          <mxGeometry y="30" width="160" height="70" as="geometry" />
        </mxCell>
        <mxCell id="siPbiEY-4KJ5PGM7pnpy-42" value="Comment" style="swimlane;childLayout=stackLayout;horizontal=1;startSize=30;horizontalStack=0;rounded=1;fontSize=14;fontStyle=0;strokeWidth=2;resizeParent=0;resizeLast=1;shadow=0;dashed=0;align=center;" vertex="1" parent="1">
          <mxGeometry x="480" y="-1680" width="160" height="120" as="geometry" />
        </mxCell>
        <mxCell id="siPbiEY-4KJ5PGM7pnpy-43" value="UserID&#xa;CommentID&#xa;CommentDate&#xa;CommentText&#xa;" style="align=left;strokeColor=none;fillColor=none;spacingLeft=4;fontSize=12;verticalAlign=top;resizable=0;rotatable=0;part=1;" vertex="1" parent="siPbiEY-4KJ5PGM7pnpy-42">
          <mxGeometry y="30" width="160" height="90" as="geometry" />
        </mxCell>
        <mxCell id="siPbiEY-4KJ5PGM7pnpy-46" value="" style="edgeStyle=entityRelationEdgeStyle;fontSize=12;html=1;endArrow=ERoneToMany;exitX=0.5;exitY=1;exitDx=0;exitDy=0;entryX=0;entryY=0.5;entryDx=0;entryDy=0;" edge="1" parent="1" source="siPbiEY-4KJ5PGM7pnpy-34" target="siPbiEY-4KJ5PGM7pnpy-36">
          <mxGeometry width="100" height="100" relative="1" as="geometry">
            <mxPoint x="370" y="-1230" as="sourcePoint" />
            <mxPoint x="470" y="-1330" as="targetPoint" />
          </mxGeometry>
        </mxCell>
        <mxCell id="siPbiEY-4KJ5PGM7pnpy-47" value="" style="edgeStyle=entityRelationEdgeStyle;fontSize=12;html=1;endArrow=ERoneToMany;entryX=-0.008;entryY=0.4;entryDx=0;entryDy=0;entryPerimeter=0;exitX=1;exitY=0.25;exitDx=0;exitDy=0;" edge="1" parent="1" source="siPbiEY-4KJ5PGM7pnpy-36" target="siPbiEY-4KJ5PGM7pnpy-38">
          <mxGeometry width="100" height="100" relative="1" as="geometry">
            <mxPoint x="360" y="-1240" as="sourcePoint" />
            <mxPoint x="460" y="-1340" as="targetPoint" />
          </mxGeometry>
        </mxCell>
        <mxCell id="siPbiEY-4KJ5PGM7pnpy-48" value="" style="edgeStyle=entityRelationEdgeStyle;fontSize=12;html=1;endArrow=ERoneToMany;entryX=-0.003;entryY=0.418;entryDx=0;entryDy=0;entryPerimeter=0;exitX=1.006;exitY=0.42;exitDx=0;exitDy=0;exitPerimeter=0;" edge="1" parent="1" source="siPbiEY-4KJ5PGM7pnpy-36" target="siPbiEY-4KJ5PGM7pnpy-41">
          <mxGeometry width="100" height="100" relative="1" as="geometry">
            <mxPoint x="360" y="-1246" as="sourcePoint" />
            <mxPoint x="470" y="-1350" as="targetPoint" />
          </mxGeometry>
        </mxCell>
        <mxCell id="siPbiEY-4KJ5PGM7pnpy-49" value="" style="edgeStyle=entityRelationEdgeStyle;fontSize=12;html=1;endArrow=ERoneToMany;exitX=1.003;exitY=0.625;exitDx=0;exitDy=0;entryX=0;entryY=0.5;entryDx=0;entryDy=0;exitPerimeter=0;" edge="1" parent="1" source="siPbiEY-4KJ5PGM7pnpy-36" target="siPbiEY-4KJ5PGM7pnpy-43">
          <mxGeometry width="100" height="100" relative="1" as="geometry">
            <mxPoint x="370" y="-1230" as="sourcePoint" />
            <mxPoint x="470" y="-1330" as="targetPoint" />
          </mxGeometry>
        </mxCell>
      </root>
    </mxGraphModel>
  </diagram>
</mxfile>
